<svg xmlns="http://www.w3.org/2000/svg" fill="none" viewBox="0 0 72 60">
  <path fill="#fff" d="M2.95 55.64c-.85-.27-1.67-.48-1.67-1.13 0-.54.5-.91 1.23-.91s1.32.43 1.48 1.18l1-.28c-.24-1.08-1.2-1.83-2.43-1.83-1.35 0-2.34.84-2.34 1.9 0 1.18 1.04 1.56 1.81 1.83.93.32 1.95.49 1.95 1.34 0 .58-.49 1.03-1.33 1.03-.95 0-1.52-.63-1.64-1.34L0 57.7c.28 1.18 1.2 2.01 2.61 2.01s2.45-.85 2.45-2.02c0-1.27-1.17-1.74-2.11-2.05Zm10.43-.76c-.17.24-.37.52-.38.52h-.01s-.21-.28-.38-.52l-1.5-2.08H9.94l2.54 3.56v3.22h1.03v-3.22l2.54-3.56h-1.18l-1.49 2.08Zm10.9.76c-.85-.27-1.67-.48-1.67-1.13 0-.54.5-.91 1.23-.91s1.32.43 1.48 1.18l1-.28c-.24-1.08-1.2-1.83-2.43-1.83-1.35 0-2.34.84-2.34 1.9 0 1.18 1.04 1.56 1.81 1.83.93.32 1.95.49 1.95 1.34 0 .58-.49 1.03-1.33 1.03-.95 0-1.52-.63-1.64-1.34l-1 .28c.28 1.18 1.2 2.01 2.61 2.01s2.45-.85 2.45-2.02c0-1.27-1.17-1.74-2.11-2.05m7.62-1.84h2.12v5.77h1.03v-5.77h2.14V52.8h-5.29v1.01Zm12.47 2.71h2.77v-.95h-2.77v-1.76h3.48V52.8h-4.52v6.78h4.58v-1.01h-3.54v-2.05Zm13.88-1.12c-.54.93-.63 1.16-.64 1.16h-.01s-.1-.23-.65-1.16l-1.5-2.59h-.98v6.78h1.03V57c0-1.23-.05-2.39-.04-2.39.01 0 .41.72.57 1.03l1.28 2.28h.54l1.28-2.28c.17-.31.57-1.03.58-1.03h.01s-.05 1.16-.05 2.39v2.59h1.02v-6.78h-.98l-1.5 2.59h.04Zm10.95.24c-.85-.27-1.68-.48-1.68-1.13 0-.54.5-.91 1.23-.91s1.33.43 1.48 1.18l1-.28c-.24-1.08-1.2-1.83-2.43-1.83-1.35 0-2.34.84-2.34 1.9 0 1.18 1.04 1.56 1.82 1.83.93.32 1.95.49 1.95 1.34 0 .58-.49 1.03-1.33 1.03-.95 0-1.52-.63-1.65-1.34l-1 .28c.28 1.18 1.21 2.01 2.6 2.01 1.47 0 2.46-.85 2.46-2.02 0-1.27-1.17-1.74-2.12-2.05M18.02 20.5h-4.75v8.17h4.75c2.95 0 4.33-1.97 4.33-4.06s-1.42-4.1-4.33-4.1"/>
  <path fill="#fff" d="M67.26 8.33997C66.18 10.9 63.72 12.7 60.83 12.7c-2.89 0-5.35-1.8-6.43-4.36003H0V50h71.34V8.33997h-4.08ZM22.96 42.99l-5.33-9.43h-4.37v9.43H7.94V15.37h9.39c6.59 0 10.54 3.67 10.54 9.23 0 3.79-1.8 6.55-5.06 7.93l6.13 10.46h-5.98Zm29.69 0h-19.2V15.37h18.97v5.13H38.78v5.88h10.77v4.81H38.78v6.67h13.87v5.13Zm10.73 0h-5.33V15.37h5.33v27.62Z"/>
  <path fill="#fff" d="m58.8401 1.02998.21-.1.15-.02.15.08.06.16.36.11.06-.21.31-.13.36-.12.35-.04.28-.06.15-.04.14-.15c-.18-.02-.37-.03-.56-.03-.78 0-1.52.18-2.18.51l.03.02h.1l.03.02Zm3.22 7.63-.32-.25-.16-.36-.14-.05-.19-.18v-.13l.07-.24.08-.22.06-.16.05-.14v-.32s-.06-.07-.1-.1c-.04-.04-.02-.07-.08-.09-.06-.01-.09 0-.09 0l-.09.02-.07.09h-.14s-.06-.08-.14-.17c-.07-.09 0 0-.13-.09s-.12-.09-.12-.09l-.08-.14s-.02-.03-.17-.06c-.15-.03-.09-.04-.09-.04h-.06s-.23-.16-.3-.17c-.07-.01-.13 0-.13 0l-.04-.02-.2-.05s-.05-.05-.1-.05c-.06 0-.16-.16-.16-.16s-.17-.06-.18-.07l-.04-.14-.1-.31s-.15-.21-.15-.3c0-.08-.1-.04-.06-.06.04-.03-.07-.11-.07-.11l.03.13s-.02.13.05.2 0 .07 0 .07h-.08l-.09-.08s-.06-.1-.06-.2v-.19s-.05-.08-.07-.11c-.02-.02-.03-.27-.03-.27l-.05-.11-.03-.22-.06-.21-.02-.13.15-.33.1-.22.06-.14.02-.1.03-.33v-.16l.07-.12.02-.07.03-.15-.05-.14h-.06l-.37-.02.07-.12-.12-.17c-1.39.92-2.32 2.53-2.32 4.36 0 2.86 2.25 5.18002 5.03 5.18002.39 0 .77-.05 1.14-.14l-.02-.09.14-.32v-.17l.1-.47002.09-.31.03-.53-.09-.08-.2-.1v.02Z"/>
  <path fill="#fff" d="m62.0999.639985.37.24.06.200005.09.5-.47-.16-.17-.12-.39-.360005-.31-.17-.22.09-.02.09.14.090005.25.11.18.18-.27.03-.26-.1-.2.21-.18.07-.21.16-.06.25.03.14.2.1.12.22.24.08.1-.09.1-.3-.05-.48.13.04.31.11.15-.03.03.02.5.28.16.2-.44.23h.08s.24.21.29.21c.04 0-.15.1-.15.1s-.09.13-.18.12c-.09-.01-.03.04-.12.05-.1 0-.25.19-.25.19l-.08.13-.14.18-.03.12v.17l-.24.04-.1.24-.19.11s.2.33.23.45-.04.14-.04.14l-.12-.11-.27-.24-.05-.04s-.18-.05-.2-.04c-.01.01-.18.03-.18.03l-.47.17-.1.12-.07.33.13.33.12.16.1.03.15-.02s.09-.11.18-.17c.08-.06.14-.12.14-.12h.1c.03 0 .01.12.01.12s-.06.11-.05.2c.01.08-.14.2-.14.2s.12.03.22 0c.09-.04.37 0 .37 0l-.05.17-.07.31.2.13h.56l.08-.03.2-.19.23-.02.2-.05.11.14.14-.1.31-.03.08.02.48.25h.07l.23.11.22.08.08.15.05.19s.12.03.18.05c.06.02.22.03.22.03l.08.06.13-.04.18-.03.16.12.17.04v.37l-.28.31-.07.6-.32.36-.17.13-.17.1-.22.36-.26.24-.09.14-.22.09h-.03l-.25.17-.11.15001-.21.21-.13.11-.13.17c1.98-.70001 3.4-2.63001 3.4-4.90001 0-2.43-1.62-4.47-3.81-5.030005"/>
</svg>
