<svg xmlns="http://www.w3.org/2000/svg" fill="none" viewBox="0 0 24 24">
  <path stroke="currentColor" d="M8.39624 12.5737c-2.7975 0-5.0625-1.4625-5.0625-3.27001 0-1.8075 2.25-3.27 5.0625-3.27 2.81246 0 5.06246 1.4625 5.06246 3.27-.0117.21797-.0393.43479-.0825.64875"/>
  <path fill="currentColor" d="M8.39626 10.0988c.67931 0 1.23-.35594 1.23-.79501s-.55069-.795-1.23-.795-1.23.35593-1.23.795.55069.79501 1.23.79501Z"/>
  <path stroke="currentColor" d="M3.33374 9.30371v5.13379c0 2.9625 2.4 3.5287 5.3625 3.5287H20.6662v-5.3925H8.39624v2.79m9.14626-2.79v2.79m-3.0488-2.79v2.79m-3.0487-2.79v2.79"/>
</svg>
